HIERARCHY
ROOT Hips
{
 OFFSET 0.000000 0.000000 0.000000
 CHANNELS 6 Xposition Yposition Zposition Yrotation Xrotation Zrotation
 JOINT Chest
 {
  OFFSET 0.000000 9.585900 0.002600
  CHANNELS 3 Yrotation Xrotation Zrotation
  JOINT Chest2
  {
   OFFSET 0.000000 9.601200 -0.005300
   CHANNELS 3 Yrotation Xrotation Zrotation
   JOINT Chest3
   {
    OFFSET 0.000000 9.561800 0.000000
    CHANNELS 3 Yrotation Xrotation Zrotation
    JOINT Chest4
    {
     OFFSET 0.000000 9.552100 0.000000
     CHANNELS 3 Yrotation Xrotation Zrotation
     JOINT Neck
     {
      OFFSET 0.000000 14.453000 0.000000
      CHANNELS 3 Yrotation Xrotation Zrotation
      JOINT Head
      {
       OFFSET 0.000000 8.936500 -0.011300
       CHANNELS 3 Yrotation Xrotation Zrotation
       End Site
       {
        OFFSET 0.000000 17.073600 -0.006000
       }
      }
     }
     JOINT RightCollar
     {
      OFFSET -2.921100 9.558500 0.000000
      CHANNELS 3 Yrotation Xrotation Zrotation
      JOINT RightShoulder
      {
       OFFSET -13.519700 0.000000 0.000000
       CHANNELS 3 Yrotation Xrotation Zrotation
       JOINT RightElbow
       {
        OFFSET 0.000000 -29.696600 0.000000
        CHANNELS 3 Yrotation Xrotation Zrotation
        JOINT RightWrist
        {
         OFFSET 0.000000 -24.004700 0.000000
         CHANNELS 3 Yrotation Xrotation Zrotation
         End Site
         {
          OFFSET 0.000000 -17.728500 0.000000
         }
        }
       }
      }
     }
     JOINT LeftCollar
     {
      OFFSET 2.921100 9.558500 0.000000
      CHANNELS 3 Yrotation Xrotation Zrotation
      JOINT LeftShoulder
      {
       OFFSET 13.519700 0.000000 0.000000
       CHANNELS 3 Yrotation Xrotation Zrotation
       JOINT LeftElbow
       {
        OFFSET 0.000000 -29.696600 0.000000
        CHANNELS 3 Yrotation Xrotation Zrotation
        JOINT LeftWrist
        {
         OFFSET 0.000000 -24.004700 0.000000
         CHANNELS 3 Yrotation Xrotation Zrotation
         End Site
         {
          OFFSET 0.000000 -17.728500 0.000000
         }
        }
       }
      }
     }
    }
   }
  }
 }
 JOINT RightHip
 {
  OFFSET -7.771700 -0.012900 -0.001300
  CHANNELS 3 Yrotation Xrotation Zrotation
  JOINT RightKnee
  {
   OFFSET 0.000000 -40.869800 0.001200
   CHANNELS 3 Yrotation Xrotation Zrotation
   JOINT RightAnkle
   {
    OFFSET 0.000000 -39.717900 0.002100
    CHANNELS 3 Yrotation Xrotation Zrotation
    JOINT RightToe
    {
     OFFSET 0.000000 -4.965400 11.033500
     CHANNELS 3 Yrotation Xrotation Zrotation
     End Site
     {
      OFFSET 0.000000 -1.423100 5.872300
     }
    }
   }
  }
 }
 JOINT LeftHip
 {
  OFFSET 7.771700 -0.012900 -0.001300
  CHANNELS 3 Yrotation Xrotation Zrotation
  JOINT LeftKnee
  {
   OFFSET 0.000000 -40.869800 0.001200
   CHANNELS 3 Yrotation Xrotation Zrotation
   JOINT LeftAnkle
   {
    OFFSET 0.000000 -39.717900 0.002100
    CHANNELS 3 Yrotation Xrotation Zrotation
    JOINT LeftToe
    {
     OFFSET 0.000000 -4.965400 11.033500
     CHANNELS 3 Yrotation Xrotation Zrotation
     End Site
     {
      OFFSET 0.000000 -1.423100 5.872300
     }
    }
   }
  }
 }
}
MOTION
Frames: 8
Frame Time: 0.008333
-40.282698 43.675668 29.161030 -178.460640 -40.965707 -0.077540 -0.145256 18.939374 1.562479 -0.096906 2.299775 0.221154 -0.151632 3.801116 0.364849 -0.503915 16.661751 1.559914 -3.963639 18.611927 -4.119184 -3.299741 -6.005816 -3.507758 6.130182 -1.436098 -14.595086 -35.596158 -29.333189 -32.482463 -160.166730 -38.482677 170.501970 -20.368597 -13.675323 -28.225988 -9.011781 -5.961674 2.221060 41.007041 -32.471558 12.266854 174.574269 -36.469636 176.001522 21.231859 -7.740021 17.083724 -0.689946 -51.878191 4.797830 -154.020272 70.381155 -154.891318 -12.955850 -21.442587 9.566010 0.365442 -0.896462 0.162390 4.660391 -38.479428 -6.003917 175.952694 58.403431 176.359754 -4.350834 -33.752929 2.903679 -0.219704 -7.866688 2.985350
-40.281324 43.675930 29.153570 -178.459232 -40.923197 -0.082592 -0.135652 18.942387 1.571718 -0.103272 2.264138 0.219181 -0.148951 3.814370 0.365626 -0.490916 16.696149 1.562915 -3.971413 18.590130 -4.111181 -3.302304 -6.006230 -3.495950 6.136787 -1.415523 -14.574729 -35.631662 -29.386343 -32.470695 -160.188971 -38.419651 170.621477 -20.350739 -13.645836 -28.088568 -9.036270 -5.972308 2.223671 41.053598 -32.473394 12.231460 174.515358 -36.439665 176.003144 21.229999 -7.723686 16.897203 -0.709888 -51.919380 4.817337 -154.009306 70.377145 -154.885663 -12.935973 -21.427971 9.553800 0.359476 -0.913900 0.166540 4.655092 -38.495050 -6.001981 175.937243 58.407071 176.343023 -4.359107 -33.821904 2.923914 -0.220813 -7.820643 2.968591
-40.279599 43.677838 29.144582 -178.468325 -40.895536 -0.083436 -0.121832 18.932985 1.582258 -0.099614 2.286565 0.220194 -0.151952 3.796744 0.364749 -0.477793 16.729334 1.566308 -3.983757 18.545437 -4.105497 -3.304054 -5.981231 -3.487060 6.123819 -1.460384 -14.576644 -35.622874 -29.377195 -32.480030 -160.195928 -38.354387 170.732555 -20.327620 -13.620049 -27.995370 -9.066506 -5.978091 2.226757 41.113228 -32.485150 12.184595 174.430681 -36.416693 176.010279 21.237173 -7.722121 16.738298 -0.721630 -51.946814 4.841332 -153.996285 70.371888 -154.877264 -12.921862 -21.409435 9.544420 0.346839 -0.920046 0.169194 4.655144 -38.490181 -5.994667 175.927948 58.413236 176.332481 -4.364126 -33.896266 2.944282 -0.212948 -7.773449 2.950731
-40.279482 43.681881 29.133635 -178.482412 -40.886675 -0.073234 -0.106300 18.942077 1.585288 -0.087399 2.346000 0.224029 -0.157231 3.764844 0.364393 -0.481417 16.711437 1.564266 -3.981780 18.602407 -4.101335 -3.319916 -6.027544 -3.474064 6.128543 -1.445733 -14.564417 -35.603612 -29.376216 -32.498066 -160.220040 -38.284280 170.832612 -20.304231 -13.591841 -27.912859 -9.090265 -5.920854 2.210318 41.167177 -32.543311 12.132024 174.351211 -36.403399 176.021312 21.248347 -7.729109 16.629808 -0.719156 -51.955450 4.850645 -153.999589 70.361535 -154.885640 -12.908687 -21.400476 9.539837 0.374054 -0.904015 0.170131 4.662948 -38.458448 -5.997107 175.918616 58.424714 176.321013 -4.367612 -33.977116 2.965549 -0.210508 -7.721445 2.932830
-40.281228 43.685339 29.123981 -178.483943 -40.871407 -0.062552 -0.099897 18.960863 1.578362 -0.090090 2.349015 0.226202 -0.148650 3.814869 0.365614 -0.486722 16.651225 1.563150 -3.985441 18.624368 -4.099977 -3.327203 -6.035669 -3.464642 6.148969 -1.378547 -14.544016 -35.562558 -29.357188 -32.518604 -160.318159 -38.195321 170.932095 -20.287618 -13.554235 -27.807164 -9.106463 -5.899259 2.200426 41.190231 -32.569399 12.112496 174.289013 -36.386442 176.032083 21.230025 -7.738658 16.604725 -0.715543 -51.968125 4.843373 -153.969367 70.343304 -154.861118 -12.893192 -21.411385 9.544653 0.371844 -0.895133 0.166171 4.668539 -38.445730 -6.007058 175.905212 58.431528 176.301139 -4.380852 -34.021617 2.985437 -0.210020 -7.696727 2.923204
-40.286516 43.688272 29.115820 -178.484276 -40.849254 -0.034785 -0.101398 19.004114 1.559081 -0.094279 2.302002 0.220803 -0.147490 3.839629 0.367461 -0.481561 16.664513 1.559395 -3.989764 18.580365 -4.093431 -3.329549 -6.005441 -3.464076 6.150751 -1.386147 -14.537648 -35.531578 -29.344672 -32.519349 -160.352336 -38.128049 171.019850 -20.278178 -13.499729 -27.660029 -9.123510 -5.907732 2.195822 41.209738 -32.605344 12.096883 174.242209 -36.377466 176.036501 21.221831 -7.749426 16.594746 -0.687767 -51.989021 4.805788 -153.940606 70.322856 -154.838785 -12.895469 -21.433796 9.560947 0.365121 -0.879324 0.159818 4.684589 -38.439631 -6.039598 175.896622 58.442805 176.278407 -4.393264 -34.061063 3.009604 -0.209305 -7.671234 2.913099
-40.295607 43.694065 29.105386 -178.466941 -40.851023 -0.000216 -0.127134 19.037306 1.515431 -0.095174 2.289134 0.219295 -0.147983 3.842411 0.367195 -0.477066 16.753771 1.559474 -3.993060 18.518818 -4.086942 -3.333738 -6.013154 -3.460911 6.156869 -1.445811 -14.537147 -35.530764 -29.362630 -32.509680 -160.336578 -38.069898 171.086596 -20.276392 -13.431531 -27.467347 -9.137483 -5.957566 2.193681 41.230146 -32.652486 12.078490 174.215870 -36.368419 176.041832 21.294463 -7.762305 16.625587 -0.666564 -51.983473 4.752000 -153.972812 70.304372 -154.882718 -12.946912 -21.424693 9.572872 0.394593 -0.906158 0.169703 4.690505 -38.393990 -6.093156 175.867088 58.466661 176.223288 -4.400982 -34.135190 3.056409 -0.212875 -7.613250 2.876530
-40.297866 43.711366 29.082606 -178.646523 -40.955079 0.116602 0.011805 19.171196 1.520244 -0.092978 2.328793 0.222725 -0.151893 3.794122 0.362811 -0.472826 16.786291 1.557527 -4.002107 18.545361 -4.086368 -3.340694 -6.056937 -3.453550 6.164032 -1.450744 -14.525047 -35.530290 -29.381973 -32.502070 -160.311764 -38.013850 171.144593 -20.288369 -13.360839 -27.234968 -9.144915 -5.985959 2.196886 41.206161 -32.655086 12.095599 174.232458 -36.353731 176.053248 21.318579 -7.765733 16.655540 -0.533138 -51.877599 4.751863 -153.993236 70.300243 -154.903540 -12.945449 -21.469114 9.583136 0.378736 -0.874705 0.160995 4.784143 -38.137443 -6.053914 175.815250 58.519807 176.161454 -4.443777 -34.416912 3.080735 -0.211119 -7.431189 2.865379
